PathFileType	4	(X/Y/Z)	Patient4_TMGait_0pt5_02_right_02.trc.trc
DataRate	CameraRate	NumFrames	NumMarkers	Units	OrigDataRate	OrigDataStartFrame	OrigNumFrames
79.096045197740	79.096045197740	5	33	mm	79.096045197740	124	       141
Frame#	Time	Sacral			L.Shoulder			Chest			R.Shoulder			Neck			R.ASIS			L.ASIS			R.Thigh.Superior			R.Thigh.Lateral			R.Thigh.Inferior			R.Patella			L.Thigh.Superior			L.Thigh.Lateral			L.Thigh.Inferior			L.Patella			L.Shank.Superior			L.Shank.Lateral			L.Shank.Inferior			R.Shank.Superior			R.Shank.Lateral			R.Shank.Inferior			R.Heel			R.Midfoot.Superior			R.Midfoot.Lateral			R.Toe			L.Heel			L.Midfoot.Lateral			L.Midfoot.Superior			L.Toe			L.Elbow			L.Wrist			R.Elbow			R.Wrist			
		X1	Y1	Z1	X2	Y2	Z2	X3	Y3	Z3	X4	Y4	Z4	X5	Y5	Z5	X6	Y6	Z6	X7	Y7	Z7	X8	Y8	Z8	X9	Y9	Z9	X10	Y10	Z10	X11	Y11	Z11	X12	Y12	Z12	X13	Y13	Z13	X14	Y14	Z14	X15	Y15	Z15	X16	Y16	Z16	X17	Y17	Z17	X18	Y18	Z18	X19	Y19	Z19	X20	Y20	Z20	X21	Y21	Z21	X22	Y22	Z22	X23	Y23	Z23	X24	Y24	Z24	X25	Y25	Z25	X26	Y26	Z26	X27	Y27	Z27	X28	Y28	Z28	X29	Y29	Z29	X30	Y30	Z30	X31	Y31	Z31	X32	Y32	Z32	X33	Y33	Z33	

124	4.115071428571	562.359603409661	1006.363341586287	462.540977481946	775.776293716931	1431.420740614056	307.439226438385	857.025988600125	1352.042455087499	476.070575176215	759.255858192064	1427.537156394124	642.817387648629	761.890110275026	1487.804596056235	458.896124959893	776.664942372952	932.377044727936	598.732203074181	786.226339593138	951.568566660090	324.325338620457	840.143109216609	749.846070410776	574.575802015022	777.447713548155	634.147494576113	640.858411664428	865.506327325642	590.314810355286	563.793992723971	889.851240448162	509.317361650663	577.494423275649	792.246597108277	725.826713752084	356.185513134069	683.343185215824	629.237773914779	289.453952023993	739.876591897094	537.675713530335	359.504745954751	725.044647887590	468.673572211385	369.874771157389	689.583899766877	402.792844203267	359.900381998845	588.318991965454	302.085982586277	303.108172884314	613.406049028212	186.431744474217	378.467121078902	875.430538046641	420.511294319092	586.821887064027	820.972421317026	306.493227984683	646.814290615605	890.292463858307	220.926072107166	595.039714298909	793.928657879705	39.953044138819	564.950453411050	957.299616838573	110.143677270919	604.948987374867	877.527792768950	37.558453289356	639.698044546103	1081.006227453491	69.938350210755	632.332075541177	464.521455074920	40.094992326257	412.457860243206	541.701746456844	36.064384361215	335.535625459357	625.386714117434	95.114542976926	365.737030081003	753.534221933491	39.390443564778	341.121072386862	809.317744352473	1094.955130249090	157.831626435026	1055.520044778857	1023.170843487884	182.257311329942	597.388088414975	1119.336420745196	735.684683222504	557.107485202749	861.956209962360	747.277294150216	
125	4.127714285714	564.386028133348	1005.210620974410	465.180995888613	776.197518574620	1430.673536701116	310.276902009916	857.845212630410	1351.666942836451	478.913126182142	759.884599834593	1426.833713494863	645.721236078001	762.330009506966	1487.114101119341	461.755013028414	778.608582742898	931.220340929580	601.198184849407	788.210440529407	951.058446492322	326.963630542627	842.250071732547	748.667145272792	576.869794934549	777.904131691437	632.722905417686	641.693611676265	866.653684215070	589.454308880218	565.371984652762	889.471038531162	507.822604581359	578.108416638590	793.022891738540	724.805055355263	358.014549811221	683.281909322313	628.872550477751	291.190237698796	739.249775875945	536.777030211551	361.039066609704	724.162188424667	467.378455729089	371.118533035547	687.551277350232	401.996899171838	361.031947892605	584.887088589389	302.788118817028	303.817671380515	608.587084886980	186.499309570816	378.714382263799	875.069783750779	418.555199768684	587.226419508781	819.611269107966	304.799649270523	646.638720323702	888.159389098653	218.966377917346	594.566915565129	789.575650548908	40.218436236858	564.252254980508	953.828127339360	107.656173810994	603.539533753859	873.093129311760	37.082545684527	639.064812503639	1077.168602286038	65.530154238037	631.013133553578	458.200252170791	41.206482904659	412.232400665204	535.477424089453	36.548241422903	335.469041721376	619.451021484256	95.274550861696	365.607080445255	747.298392349096	39.083664305971	341.052056603496	810.729959195189	1094.078624347528	160.998159852452	1057.752424761422	1025.746585112631	186.082939461442	597.324481448091	1119.007798284504	737.749193257869	555.830925602957	861.707983090555	748.707658462239	
126	4.140357142857	566.305037675263	1004.314404433846	467.918624476130	776.721361823624	1430.101015661346	313.226304694488	858.746574889381	1351.423861521223	481.865887182283	760.600027765372	1426.279584839354	648.747287093643	762.910248777377	1486.615768389784	464.742943517131	780.526718379429	930.301701363854	603.759631242814	790.050004031436	950.766427676366	329.675672278980	844.674903038825	748.039466535659	579.091288968199	778.953281786788	631.777572003141	642.536371182860	868.423430588577	589.085540493978	566.995729563303	889.667085964964	506.552755330057	578.848324687352	794.069437537253	724.092537494304	359.879356136501	683.728876644248	628.550755308903	293.096627712314	739.485955191454	536.011112157125	362.683847688764	724.293519368028	466.042681332030	372.386056901923	686.277185900334	401.207186144872	362.239464579984	581.992605369385	303.765065648280	304.632245580847	604.145552872174	186.765855900297	378.970803697141	874.952953799258	416.829311676753	587.708398979334	818.189631352178	303.567209396562	646.755605070498	885.407748645407	217.161877708024	594.228850481668	783.856069550494	40.707324385075	563.801508850309	949.138565362382	105.290627171051	602.363130957261	867.317982209675	36.752404124588	638.658718992373	1072.067418838010	61.123024121177	629.873572773930	451.975189556169	42.875562318549	411.986809871955	529.316157869013	37.311962812929	335.391588683702	613.740214982542	95.524234357089	365.411103692893	741.091414388621	38.748069199528	340.961508571258	811.720169256370	1093.209484634429	164.404244694517	1059.316765026790	1027.325810730992	189.995032068287	598.232052119972	1118.230725158237	739.936333293251	556.143920466821	860.892407370033	750.222518790142	
127	4.153000000000	568.082074030239	1003.721214321906	470.738093158146	777.369388391205	1429.752757404476	316.270448258627	859.728837688739	1351.331831378519	484.906120502480	761.423456838127	1425.918222854292	651.869020458577	763.650593895291	1486.347349938474	467.839027600570	782.393873835085	929.664306054508	606.395451510252	791.665600473835	950.723112348957	332.423046184723	847.277553552248	747.912162687674	581.211926896780	780.475208762401	631.303761387425	643.433215970433	870.594393471153	589.113521076885	568.633138169565	890.266961918904	505.520015216608	579.712476377162	795.406616878794	723.739530812215	361.778922352141	684.783304045787	628.270870612045	295.161802917492	740.737956556512	535.398699134969	364.424640621236	725.595114333906	464.678410491039	373.638518416120	685.903957648655	400.430944606026	363.502097734585	579.762434193644	305.064474754046	305.557744336051	600.181686663559	187.280244098397	379.232691679497	874.981787432075	415.382696050300	588.278268897561	816.775785157273	302.773622476433	647.190912280025	882.234920254840	215.582088544541	594.046678810172	777.299761683172	41.270422544302	563.592901733918	943.632759056321	103.215757084168	601.471572330172	860.729325276575	36.536850826503	638.478526594714	1066.148930104415	57.121022913326	628.983613837755	445.911296231044	45.248282015270	411.739172405228	523.252273176283	38.450354687282	335.312990389999	608.325189164209	95.891193814921	365.145708888440	734.913234858624	38.394584590326	340.856827504511	812.279912089822	1092.404951159700	168.039744172780	1060.216613718235	1027.907543701197	193.988182611861	600.066451317473	1117.096267221523	742.255222128822	558.046993445506	859.589159049706	751.834077059221	
128	4.165642857143	569.696658144687	1003.449861864606	473.637046557201	778.137789819749	1429.663098138496	319.389626852484	860.781372703935	1351.400318096706	488.002932052041	762.377732821224	1425.779360987387	655.060514078268	764.550109929242	1486.326780897459	471.018890310812	784.197358320924	929.329818014231	609.080881325395	792.997967903267	950.938765524939	335.165372600172	849.902235675913	748.185672155588	583.215121552011	782.297301589995	631.247124073771	644.417816921732	872.897797428771	589.408564808057	570.242015039469	891.049369049094	504.703091471365	580.673408680951	797.056682460436	723.775330130245	363.718681849248	686.542465435879	628.025170350289	297.367128772714	743.140257272956	534.953650969736	366.240741510404	728.194716805740	463.301930420794	374.836771736997	686.562986999535	399.677151912967	364.795414872660	578.323231279809	306.729267305351	306.597040448221	596.799940069318	188.092454061747	379.496703821458	875.005211116078	414.222727360608	588.926357892590	815.351199153061	302.359774405344	647.914529417595	878.768602269568	214.262547079064	594.013483474869	770.337336113298	41.801862991573	563.593049918498	937.647632118033	101.533511315107	600.867095901551	853.752263647363	36.409566944648	638.494841882474	1059.775688580689	53.786295080378	628.370453842442	440.092040686961	48.471994394760	411.512363423726	517.334159875665	40.072924000077	335.245687796610	603.281967808178	96.410013624502	364.815610325950	728.764878326302	38.035664608928	340.749876049424	812.403041194502	1091.717643492635	171.890359954482	1060.445177879523	1027.500425442852	198.055257422425	602.759119946996	1115.711938186698	744.718651200971	561.540532214296	857.901420090359	753.558864856455	
